<svg xmlns="http://www.w3.org/2000/svg" xmlns:xlink="http://www.w3.org/1999/xlink" width="6912" zoomAndPan="magnify" viewBox="0 0 5184 2592.000001" height="3456" preserveAspectRatio="xMidYMid meet" version="1.0"><defs><clipPath id="f4ce78c1a0"><path d="M 1 0 L 5183 0 L 5183 2591 L 1 2591 Z M 1 0 " clip-rule="nonzero"/></clipPath><clipPath id="de5946bb57"><path d="M 3 1754 L 3543 1754 L 3543 2591 L 3 2591 Z M 3 1754 " clip-rule="nonzero"/></clipPath><clipPath id="553b684bd5"><path d="M 9 1295.5 L 5181 1295.5 L 5181 2591 L 9 2591 Z M 9 1295.5 " clip-rule="nonzero"/></clipPath></defs><g clip-path="url(#f4ce78c1a0)"><path fill="#ffffff" d="M 1 0 L 5183 0 L 5183 2598.496094 L 1 2598.496094 Z M 1 0 " fill-opacity="1" fill-rule="nonzero"/></g><path fill="#ffffff" d="M 1 0 L 5183 0 L 5183 2591 L 1 2591 Z M 1 0 " fill-opacity="1" fill-rule="nonzero"/><path fill="#ffffff" d="M 1 0 L 5183 0 L 5183 2591 L 1 2591 Z M 1 0 " fill-opacity="1" fill-rule="nonzero"/><g clip-path="url(#de5946bb57)"><path fill="#f69e56" d="M 3.085938 1754.707031 C 3.085938 1754.707031 1167.652344 2706.777344 2824.078125 2378.464844 L 3542.363281 2784.90625 L 3.085938 2784.90625 Z M 3.085938 1754.707031 " fill-opacity="1" fill-rule="nonzero"/></g><g clip-path="url(#553b684bd5)"><path fill="#ff7200" d="M 5180.851562 2784.910156 L 5180.851562 1295.5625 C 5180.851562 1295.5625 656.195312 3090.308594 9.226562 2305.617188 L 9.226562 2784.722656 Z M 5180.851562 2784.910156 " fill-opacity="1" fill-rule="nonzero"/></g></svg>